<svg width="320" height="336" viewBox="0 0 320 336" fill="none" xmlns="http://www.w3.org/2000/svg">
<rect x="160" y="24" width="16" height="16" fill="#AAAAAA"/>
<rect x="192" y="24" width="16" height="16" fill="#AAAAAA"/>
<rect x="208" y="24" width="16" height="16" fill="#AAAAAA"/>
<rect x="224" y="24" width="16" height="16" fill="#AAAAAA"/>
<rect x="240" y="24" width="16" height="16" fill="#AAAAAA"/>
<rect x="256" y="24" width="16" height="16" fill="#AAAAAA"/>
<rect x="272" y="24" width="16" height="16" fill="#AAAAAA"/>
<rect x="288" y="24" width="16" height="16" fill="#AAAAAA"/>
<rect x="144" y="16" width="16" height="16" fill="#AAAAAA"/>
<rect x="144" y="32" width="16" height="16" fill="#AAAAAA"/>
<rect x="144" y="48" width="16" height="16" fill="#AAAAAA"/>
<rect x="144" y="64" width="16" height="16" fill="#AAAAAA"/>
<rect x="144" y="80" width="16" height="16" fill="#AAAAAA"/>
<rect x="144" y="96" width="16" height="16" fill="#AAAAAA"/>
<rect x="304" y="16" width="16" height="16" fill="#AAAAAA"/>
<rect x="304" y="32" width="16" height="16" fill="#AAAAAA"/>
<rect x="304" y="48" width="16" height="16" fill="#AAAAAA"/>
<rect x="304" y="64" width="16" height="16" fill="#AAAAAA"/>
<rect x="304" y="80" width="16" height="16" fill="#AAAAAA"/>
<rect x="288" y="80" width="16" height="16" fill="#AAAAAA"/>
<rect x="272" y="80" width="16" height="16" fill="#AAAAAA"/>
<rect x="256" y="80" width="16" height="16" fill="#AAAAAA"/>
<rect x="240" y="80" width="16" height="16" fill="#AAAAAA"/>
<rect x="224" y="80" width="16" height="16" fill="#AAAAAA"/>
<rect x="224" y="96" width="16" height="16" fill="#AAAAAA"/>
<rect x="128" y="112" width="16" height="64" fill="#AAAAAA"/>
<rect x="112" y="128" width="16" height="48" fill="#AAAAAA"/>
<rect x="96" y="144" width="16" height="32" fill="#AAAAAA"/>
<rect x="80" y="160" width="16" height="16" fill="#AAAAAA"/>
<rect x="48" y="176" width="144" height="80" fill="#AAAAAA"/>
<rect x="32" y="160" width="16" height="16" fill="#AAAAAA"/>
<rect x="16" y="144" width="16" height="16" fill="#AAAAAA"/>
<rect y="128" width="16" height="16" fill="#AAAAAA"/>
<rect y="112" width="16" height="16" fill="#AAAAAA"/>
<rect y="144" width="16" height="16" fill="#AAAAAA"/>
<rect y="160" width="16" height="16" fill="#AAAAAA"/>
<rect x="16" y="160" width="16" height="16" fill="#AAAAAA"/>
<rect x="32" y="176" width="16" height="16" fill="#AAAAAA"/>
<rect x="48" y="192" width="16" height="16" fill="#AAAAAA"/>
<rect x="64" y="192" width="16" height="16" fill="#AAAAAA"/>
<rect x="80" y="192" width="16" height="16" fill="#AAAAAA"/>
<rect x="96" y="192" width="16" height="16" fill="#AAAAAA"/>
<rect x="112" y="192" width="16" height="16" fill="#AAAAAA"/>
<rect x="128" y="192" width="16" height="16" fill="#AAAAAA"/>
<rect x="144" y="192" width="16" height="16" fill="#AAAAAA"/>
<rect x="160" y="192" width="16" height="16" fill="#AAAAAA"/>
<rect x="176" y="176" width="16" height="16" fill="#AAAAAA"/>
<rect x="192" y="160" width="16" height="16" fill="#AAAAAA"/>
<rect y="176" width="16" height="16" fill="#AAAAAA"/>
<rect x="16" y="176" width="16" height="16" fill="#AAAAAA"/>
<rect x="32" y="192" width="16" height="16" fill="#AAAAAA"/>
<rect x="48" y="208" width="16" height="16" fill="#AAAAAA"/>
<rect x="64" y="208" width="16" height="16" fill="#AAAAAA"/>
<rect x="80" y="208" width="16" height="16" fill="#AAAAAA"/>
<rect x="96" y="208" width="16" height="16" fill="#AAAAAA"/>
<rect x="112" y="208" width="16" height="16" fill="#AAAAAA"/>
<rect x="128" y="208" width="16" height="16" fill="#AAAAAA"/>
<rect x="144" y="208" width="16" height="16" fill="#AAAAAA"/>
<rect x="160" y="208" width="16" height="16" fill="#AAAAAA"/>
<rect x="176" y="192" width="16" height="16" fill="#AAAAAA"/>
<rect x="192" y="176" width="16" height="16" fill="#AAAAAA"/>
<rect y="192" width="16" height="16" fill="#AAAAAA"/>
<rect x="16" y="192" width="16" height="16" fill="#AAAAAA"/>
<rect x="32" y="208" width="16" height="16" fill="#AAAAAA"/>
<rect x="48" y="224" width="16" height="16" fill="#AAAAAA"/>
<rect x="64" y="224" width="16" height="16" fill="#AAAAAA"/>
<rect x="80" y="224" width="16" height="16" fill="#AAAAAA"/>
<rect x="96" y="224" width="16" height="16" fill="#AAAAAA"/>
<rect x="112" y="224" width="16" height="16" fill="#AAAAAA"/>
<rect x="128" y="224" width="16" height="16" fill="#AAAAAA"/>
<rect x="144" y="224" width="16" height="16" fill="#AAAAAA"/>
<rect x="160" y="224" width="16" height="16" fill="#AAAAAA"/>
<rect x="176" y="208" width="16" height="16" fill="#AAAAAA"/>
<rect x="192" y="192" width="16" height="16" fill="#AAAAAA"/>
<rect x="64" y="240" width="16" height="16" fill="#AAAAAA"/>
<rect x="80" y="240" width="16" height="16" fill="#AAAAAA"/>
<rect x="96" y="240" width="16" height="16" fill="#AAAAAA"/>
<rect x="112" y="240" width="16" height="16" fill="#AAAAAA"/>
<rect x="128" y="240" width="16" height="16" fill="#AAAAAA"/>
<rect x="144" y="240" width="16" height="16" fill="#AAAAAA"/>
<rect x="160" y="240" width="16" height="16" fill="#AAAAAA"/>
<rect x="176" y="224" width="16" height="16" fill="#AAAAAA"/>
<rect x="192" y="208" width="16" height="16" fill="#AAAAAA"/>
<rect x="16" y="208" width="16" height="16" fill="#AAAAAA"/>
<rect x="32" y="224" width="16" height="16" fill="#AAAAAA"/>
<rect x="48" y="240" width="16" height="16" fill="#AAAAAA"/>
<rect x="64" y="256" width="112" height="16" fill="#AAAAAA"/>
<rect x="80" y="256" width="16" height="16" fill="#AAAAAA"/>
<rect x="80" y="272" width="16" height="16" fill="#AAAAAA"/>
<rect x="80" y="288" width="16" height="16" fill="#AAAAAA"/>
<rect x="80" y="304" width="16" height="16" fill="#AAAAAA"/>
<rect x="80" y="320" width="16" height="16" fill="#AAAAAA"/>
<rect x="96" y="320" width="16" height="16" fill="#AAAAAA"/>
<rect x="96" y="256" width="16" height="16" fill="#AAAAAA"/>
<rect x="96" y="272" width="16" height="16" fill="#AAAAAA"/>
<rect x="96" y="288" width="16" height="16" fill="#AAAAAA"/>
<rect x="112" y="256" width="16" height="16" fill="#AAAAAA"/>
<rect x="112" y="272" width="16" height="16" fill="#AAAAAA"/>
<rect x="128" y="256" width="16" height="16" fill="#AAAAAA"/>
<rect x="160" y="256" width="16" height="16" fill="#AAAAAA"/>
<rect x="176" y="240" width="16" height="16" fill="#AAAAAA"/>
<rect x="192" y="224" width="16" height="16" fill="#AAAAAA"/>
<rect x="208" y="208" width="16" height="16" fill="#AAAAAA"/>
<rect x="208" y="192" width="16" height="16" fill="#AAAAAA"/>
<rect x="208" y="176" width="16" height="16" fill="#AAAAAA"/>
<rect x="208" y="160" width="16" height="16" fill="#AAAAAA"/>
<rect x="208" y="144" width="16" height="16" fill="#AAAAAA"/>
<rect x="208" y="128" width="16" height="16" fill="#AAAAAA"/>
<rect x="208" y="112" width="16" height="16" fill="#AAAAAA"/>
<rect x="224" y="160" width="16" height="16" fill="#AAAAAA"/>
<rect x="240" y="160" width="16" height="16" fill="#AAAAAA"/>
<rect x="240" y="176" width="16" height="16" fill="#AAAAAA"/>
<rect x="224" y="112" width="16" height="16" fill="#AAAAAA"/>
<rect x="240" y="112" width="16" height="16" fill="#AAAAAA"/>
<rect x="256" y="112" width="16" height="16" fill="#AAAAAA"/>
<rect x="272" y="112" width="16" height="16" fill="#AAAAAA"/>
<rect x="144" y="256" width="16" height="16" fill="#AAAAAA"/>
<rect x="176" y="272" width="16" height="16" fill="#AAAAAA"/>
<rect x="192" y="272" width="16" height="16" fill="#AAAAAA"/>
<rect x="160" y="272" width="16" height="16" fill="#AAAAAA"/>
<rect x="64" y="176" width="16" height="16" fill="#AAAAAA"/>
<rect x="80" y="176" width="96" height="96" fill="#AAAAAA"/>
<rect x="96" y="176" width="16" height="16" fill="#AAAAAA"/>
<rect x="112" y="176" width="16" height="16" fill="#AAAAAA"/>
<rect x="128" y="176" width="16" height="16" fill="#AAAAAA"/>
<rect x="144" y="176" width="16" height="16" fill="#AAAAAA"/>
<rect x="160" y="176" width="16" height="16" fill="#AAAAAA"/>
<rect x="176" y="160" width="16" height="16" fill="#AAAAAA"/>
<rect x="192" y="144" width="16" height="16" fill="#AAAAAA"/>
<rect x="160" width="16" height="16" fill="#AAAAAA"/>
<rect x="176" width="16" height="16" fill="#AAAAAA"/>
<rect x="192" width="112" height="96" fill="#AAAAAA"/>
<rect x="208" width="16" height="20" fill="#AAAAAA"/>
<rect x="224" width="16" height="16" fill="#AAAAAA"/>
<rect x="240" width="16" height="16" fill="#AAAAAA"/>
<rect x="256" width="16" height="16" fill="#AAAAAA"/>
<rect x="272" width="16" height="16" fill="#AAAAAA"/>
<rect x="288" width="16" height="16" fill="#AAAAAA"/>
<rect x="160" y="16" width="144" height="8" fill="#AAAAAA"/>
<rect x="160" y="40" width="144" height="56" fill="#AAAAAA"/>
<rect x="144" y="40" width="80" height="184" fill="#AAAAAA"/>
</svg>
